# xmcd
#
# Track frame offsets:
# 150
# 14041
# 27660
# 39365
# 52978
# 72180
# 86118
# 98184
# 113573
# 128639
# 143499
# 160233
# 173269
# 186166
# 196708
#
# Disc length: 2826 seconds
#
#
# Revision: 0
# Processed by: cddbd v1.5.1PL2 Copyright (c) Steve Scherf et al.
# Submitted via: FreeRIP 2.944 
#
DISCID=bc0b080f
DTITLE=Dorinho, Iara e Ponteli - Um Trio de Ouro
DYEAR=1900
DGENRE=Sertanejo
TTITLE0=Enxugue as Lágrimas
TTITLE1=Devoção
TTITLE2=Porto do Adeus
TTITLE3=Marinheiro
TTITLE4=Avenida Boiadeira
TTITLE5=Despedida
TTITLE6=Sonho Desfeito
TTITLE7=A Imagem de Jesus
TTITLE8=Noite do Adeus
TTITLE9=O Choro da Goteira
TTITLE10=Tulha Velha
TTITLE11=Sem Sangue nas Veias
TTITLE12=Passarada
TTITLE13=Me Dá Uma Bicota
TTITLE14=A Mesma Porta
EXTD=
EXTT0=Zito Vieira e George A B
EXTT1=Nonô Basílo
EXTT2=Dorinho e Mococa
EXTT3=Romancito Gomes
EXTT4=José Fortuna e Paraíso
EXTT5=Dorinho e Ponteli
EXTT6=Nenete e José Russo
EXTT7=Luis Fernando Pasquini
EXTT8=Dorinho e José F Farias
EXTT9=Caetano Erba e Tião do Carro
EXTT10=Caetano Erba e Paraíso
EXTT11=Jose Alfredo Gimenes
EXTT12=Anacleto Rosa e Nenete
EXTT13=Noel Fernandes e Ponteli
EXTT14=Dorinho e Baragatti
PLAYORDER=
